<svg width="203" height="31" viewBox="0 0 203 31" fill="none" xmlns="http://www.w3.org/2000/svg">
<path d="M192.691 29.7914C190.804 29.7914 189.331 29.2696 188.274 28.2259C187.226 27.1719 186.703 25.7098 186.703 23.8394V8.74245H189.549V23.6224C189.549 24.8314 189.803 25.7253 190.311 26.3039C190.83 26.8723 191.623 27.1564 192.691 27.1564C193.811 27.1564 194.827 26.7018 195.739 25.7924L197.326 27.9004C196.061 29.1611 194.516 29.7914 192.691 29.7914ZM182.27 15.4849V13.0669H196.346V15.4849H182.27Z" fill="black"/>
<path d="M172.296 29.776C170.731 29.776 169.357 29.4246 168.175 28.722C166.993 28.0193 166.075 27.0376 165.422 25.777C164.769 24.5163 164.442 23.049 164.442 21.375V20.972C164.442 19.298 164.758 17.8358 165.391 16.5855C166.034 15.3248 166.93 14.3431 168.081 13.6405C169.232 12.9378 170.565 12.5865 172.079 12.5865C173.582 12.5865 174.847 12.9223 175.874 13.594C176.9 14.2656 177.735 15.2318 178.378 16.4925L176.029 17.8255C175.615 16.9678 175.081 16.3168 174.427 15.8725C173.784 15.4178 173.002 15.1905 172.079 15.1905C170.606 15.1905 169.44 15.6968 168.579 16.7095C167.729 17.7221 167.304 19.1068 167.304 20.8635V21.5145C167.304 23.2298 167.755 24.599 168.657 25.622C169.559 26.645 170.762 27.1565 172.265 27.1565C173.188 27.1565 173.997 26.9446 174.692 26.521C175.386 26.087 175.993 25.4153 176.512 24.506L178.782 25.9475C178.305 26.7741 177.74 27.4768 177.087 28.0555C176.434 28.6238 175.703 29.0526 174.894 29.342C174.096 29.6313 173.23 29.776 172.296 29.776Z" fill="black"/>
<path d="M152.96 29.7915C151.394 29.7915 150.025 29.4453 148.854 28.753C147.692 28.0503 146.79 27.0738 146.147 25.8235C145.505 24.5628 145.183 23.0903 145.183 21.406V20.817C145.183 19.1636 145.499 17.7221 146.132 16.4925C146.775 15.2525 147.672 14.2915 148.823 13.6095C149.974 12.9171 151.316 12.571 152.851 12.571C154.23 12.571 155.428 12.8706 156.444 13.47C157.47 14.059 158.264 14.896 158.824 15.981C159.394 17.0556 159.679 18.3163 159.679 19.763C159.679 20.1556 159.664 20.538 159.632 20.91C159.612 21.2716 159.575 21.6281 159.524 21.9795H146.941V19.732H156.879V19.67C156.879 18.2543 156.511 17.1331 155.775 16.3065C155.049 15.4695 154.064 15.051 152.82 15.051C151.348 15.051 150.171 15.5728 149.289 16.6165C148.418 17.6498 147.983 19.0758 147.983 20.8945V21.3285C147.983 23.1471 148.434 24.5886 149.336 25.653C150.248 26.7173 151.482 27.2495 153.038 27.2495C154.914 27.2495 156.335 26.4073 157.299 24.723L159.57 26.1645C158.875 27.3735 157.979 28.2828 156.879 28.8925C155.78 29.4918 154.474 29.7915 152.96 29.7915Z" fill="black"/>
<path d="M127.387 29.2955V13.067H130.015V15.547H130.124C130.746 14.586 131.508 13.8523 132.411 13.346C133.313 12.8293 134.344 12.571 135.506 12.571C137.186 12.571 138.482 13.1186 139.394 14.214C140.307 15.3093 140.763 16.7818 140.763 18.6315V29.2955H137.948V19.0655C137.948 17.7531 137.657 16.7611 137.077 16.0895C136.496 15.4075 135.641 15.0665 134.51 15.0665C133.225 15.0665 132.182 15.5005 131.384 16.3685C130.596 17.2365 130.202 18.4403 130.202 19.98V29.2955H127.387Z" fill="black"/>
<path d="M108.734 29.2955V13.067H111.363V15.547H111.472C112.094 14.586 112.856 13.8523 113.758 13.346C114.66 12.8293 115.692 12.571 116.853 12.571C118.533 12.571 119.829 13.1186 120.742 14.214C121.654 15.3093 122.11 16.7818 122.11 18.6315V29.2955H119.295V19.0655C119.295 17.7531 119.005 16.7611 118.424 16.0895C117.844 15.4075 116.988 15.0665 115.858 15.0665C114.572 15.0665 113.53 15.5005 112.732 16.3685C111.944 17.2365 111.55 18.4403 111.55 19.98V29.2955H108.734Z" fill="black"/>
<path d="M96.5366 29.7915C95.0331 29.7915 93.711 29.4401 92.5704 28.7375C91.4402 28.0348 90.5588 27.0531 89.9263 25.7925C89.2938 24.5215 88.9775 23.0541 88.9775 21.3905V20.972C88.9775 19.298 89.2938 17.8306 89.9263 16.57C90.5588 15.3093 91.4402 14.3276 92.5704 13.625C93.711 12.9223 95.0331 12.571 96.5366 12.571C98.0401 12.571 99.357 12.9223 100.487 13.625C101.628 14.3276 102.514 15.3093 103.147 16.57C103.779 17.8306 104.096 19.298 104.096 20.972V21.3905C104.096 23.0541 103.779 24.5215 103.147 25.7925C102.514 27.0531 101.628 28.0348 100.487 28.7375C99.357 29.4401 98.0401 29.7915 96.5366 29.7915ZM96.5366 27.1875C97.9883 27.1875 99.1289 26.6656 99.9584 25.622C100.788 24.5783 101.203 23.1523 101.203 21.344V21.0185C101.203 19.1998 100.788 17.7738 99.9584 16.7405C99.1289 15.6968 97.9883 15.175 96.5366 15.175C95.0953 15.175 93.9547 15.6968 93.1148 16.7405C92.2853 17.7738 91.8705 19.1998 91.8705 21.0185V21.344C91.8705 23.1523 92.2853 24.5783 93.1148 25.622C93.9547 26.6656 95.0953 27.1875 96.5366 27.1875Z" fill="black"/>
<path d="M78.7091 29.7915C76.9567 29.7915 75.4324 29.3316 74.1363 28.412C72.8505 27.4923 71.8551 26.1903 71.15 24.506C70.4553 22.8113 70.1079 20.8066 70.1079 18.492V17.903C70.1079 15.5573 70.4501 13.5423 71.1345 11.858C71.8188 10.1633 72.7935 8.86646 74.0585 7.96746C75.3339 7.05812 76.853 6.60345 78.6158 6.60345C80.337 6.60345 81.8042 7.06846 83.0174 7.99846C84.241 8.92846 85.1431 10.2821 85.7238 12.0595L83.0485 13.0825C82.6027 11.7701 82.022 10.8195 81.3065 10.2305C80.5911 9.63112 79.6734 9.33145 78.5535 9.33145C76.8012 9.33145 75.448 10.0651 74.494 11.5325C73.5401 12.9998 73.0631 15.0975 73.0631 17.8255V18.5695C73.0631 21.2768 73.5556 23.3693 74.5407 24.847C75.5361 26.3246 76.9411 27.0635 78.7557 27.0635C81.0058 27.0635 82.5301 25.8183 83.3285 23.328L86.0193 24.32C85.449 26.0973 84.5365 27.4561 83.2818 28.3965C82.0375 29.3265 80.5133 29.7915 78.7091 29.7915Z" fill="black"/>
<path d="M57.7706 29.2955L51.6113 13.067H54.6598L58.1283 22.5995L59.2326 26.2575H59.3415L60.4302 22.5995L63.8365 13.067H66.8539L60.6946 29.2955H57.7706Z" fill="black"/>
<path d="M41.0468 29.7915C39.4811 29.7915 38.1124 29.4453 36.9407 28.753C35.7793 28.0503 34.8772 27.0738 34.2343 25.8235C33.5915 24.5628 33.27 23.0903 33.27 21.406V20.817C33.27 19.1636 33.5863 17.7221 34.2188 16.4925C34.8617 15.2525 35.7586 14.2915 36.9096 13.6095C38.0605 12.9171 39.4033 12.571 40.938 12.571C42.317 12.571 43.5147 12.8706 44.5309 13.47C45.5574 14.059 46.3506 14.896 46.9106 15.981C47.4809 17.0556 47.766 18.3163 47.766 19.763C47.766 20.1556 47.7505 20.538 47.7193 20.91C47.6986 21.2716 47.6623 21.6281 47.6105 21.9795H35.0276V19.732H44.9664V19.67C44.9664 18.2543 44.5982 17.1331 43.862 16.3065C43.1362 15.4695 42.1511 15.051 40.9069 15.051C39.4344 15.051 38.2576 15.5728 37.3762 16.6165C36.5052 17.6498 36.0697 19.0758 36.0697 20.8945V21.3285C36.0697 23.1471 36.5207 24.5886 37.4228 25.653C38.3353 26.7173 39.5692 27.2495 41.1246 27.2495C43.0014 27.2495 44.422 26.4073 45.3863 24.723L47.6571 26.1645C46.9624 27.3735 46.0655 28.2828 44.9664 28.8925C43.8672 29.4918 42.5607 29.7915 41.0468 29.7915Z" fill="black"/>
<path d="M14.7734 29.2955V7.09946H20.6527C22.5399 7.09946 24.1523 7.52829 25.4899 8.38596C26.8275 9.24362 27.854 10.4785 28.5695 12.0905C29.285 13.7025 29.6427 15.64 29.6427 17.903V18.492C29.6427 20.7446 29.285 22.6821 28.5695 24.3045C27.854 25.9165 26.8275 27.1513 25.4899 28.009C24.1523 28.8666 22.5399 29.2955 20.6527 29.2955H14.7734ZM17.6353 26.5985H20.5594C22.5814 26.5985 24.1056 25.9216 25.1322 24.568C26.1691 23.2143 26.6875 21.2148 26.6875 18.5695V17.8255C26.6875 15.1801 26.1691 13.1806 25.1322 11.827C24.1056 10.4733 22.5814 9.79646 20.5594 9.79646H17.6353V26.5985Z" fill="black"/>
</svg>
