<svg width="101" height="27" viewBox="0 0 101 27" fill="none" xmlns="http://www.w3.org/2000/svg">
<path d="M88.9111 25V10.8655H91.1998V13.0255H91.2946C91.8362 12.1885 92.4998 11.5495 93.2853 11.1085C94.0707 10.6585 94.969 10.4335 95.9802 10.4335C97.4427 10.4335 98.5712 10.9105 99.3657 11.8645C100.16 12.8185 100.557 14.101 100.557 15.712V25H98.1063V16.09C98.1063 14.947 97.8535 14.083 97.3479 13.498C96.8423 12.904 96.0975 12.607 95.1135 12.607C93.994 12.607 93.0866 12.985 92.3915 13.741C91.7053 14.497 91.3623 15.5455 91.3623 16.8865V25H88.9111Z" fill="black"/>
<path d="M78.291 25.432C76.9819 25.432 75.8308 25.126 74.8377 24.514C73.8537 23.902 73.0863 23.047 72.5355 21.949C71.9848 20.842 71.7095 19.564 71.7095 18.115V17.7505C71.7095 16.2925 71.9848 15.0145 72.5355 13.9165C73.0863 12.8185 73.8537 11.9635 74.8377 11.3515C75.8308 10.7395 76.9819 10.4335 78.291 10.4335C79.6001 10.4335 80.7466 10.7395 81.7307 11.3515C82.7238 11.9635 83.4957 12.8185 84.0464 13.9165C84.5971 15.0145 84.8725 16.2925 84.8725 17.7505V18.115C84.8725 19.564 84.5971 20.842 84.0464 21.949C83.4957 23.047 82.7238 23.902 81.7307 24.514C80.7466 25.126 79.6001 25.432 78.291 25.432ZM78.291 23.164C79.5549 23.164 80.548 22.7095 81.2703 21.8005C81.9925 20.8915 82.3536 19.6495 82.3536 18.0745V17.791C82.3536 16.207 81.9925 14.965 81.2703 14.065C80.548 13.156 79.5549 12.7015 78.291 12.7015C77.0361 12.7015 76.043 13.156 75.3117 14.065C74.5894 14.965 74.2283 16.207 74.2283 17.791V18.0745C74.2283 19.6495 74.5894 20.8915 75.3117 21.8005C76.043 22.7095 77.0361 23.164 78.291 23.164Z" fill="black"/>
<path d="M62.7686 25.432C61.2429 25.432 59.9157 25.0315 58.7872 24.2305C57.6677 23.4295 56.801 22.2955 56.1871 20.8285C55.5822 19.3525 55.2798 17.6065 55.2798 15.5905V15.0775C55.2798 13.0345 55.5777 11.2795 56.1736 9.81249C56.7694 8.33649 57.6181 7.20699 58.7195 6.42399C59.83 5.63199 61.1526 5.23599 62.6874 5.23599C64.186 5.23599 65.4635 5.64099 66.5198 6.45099C67.5851 7.26099 68.3706 8.43999 68.8761 9.98799L66.5469 10.879C66.1587 9.73599 65.6531 8.90799 65.0302 8.39499C64.4072 7.87299 63.6082 7.61199 62.6332 7.61199C61.1074 7.61199 59.9293 8.25099 59.0987 9.52899C58.2681 10.807 57.8528 12.634 57.8528 15.01V15.658C57.8528 18.016 58.2816 19.8385 59.1393 21.1255C60.006 22.4125 61.2293 23.056 62.8092 23.056C64.7683 23.056 66.0955 21.9715 66.7906 19.8025L69.1334 20.6665C68.6369 22.2145 67.8424 23.398 66.75 24.217C65.6666 25.027 64.3395 25.432 62.7686 25.432Z" fill="black"/>
<path d="M44.538 25L39.1753 10.8655H41.8296L44.8495 19.168L45.811 22.354H45.9058L46.8537 19.168L49.8195 10.8655H52.4466L47.0839 25H44.538Z" fill="black"/>
<path d="M29.9771 25.432C28.6139 25.432 27.4222 25.1305 26.402 24.5275C25.3909 23.9155 24.6054 23.065 24.0457 21.976C23.4859 20.878 23.2061 19.5955 23.2061 18.1285V17.6155C23.2061 16.1755 23.4814 14.92 24.0321 13.849C24.5919 12.769 25.3728 11.932 26.3749 11.338C27.377 10.735 28.5462 10.4335 29.8824 10.4335C31.0831 10.4335 32.1258 10.6945 33.0106 11.2165C33.9044 11.7295 34.595 12.4585 35.0826 13.4035C35.5791 14.3395 35.8274 15.4375 35.8274 16.6975C35.8274 17.0395 35.8138 17.3725 35.7867 17.6965C35.7687 18.0115 35.7371 18.322 35.692 18.628H24.7363V16.6705H33.3898V16.6165C33.3898 15.3835 33.0693 14.407 32.4283 13.687C31.7963 12.958 30.9386 12.5935 29.8553 12.5935C28.5733 12.5935 27.5486 13.048 26.7812 13.957C26.0228 14.857 25.6436 16.099 25.6436 17.683V18.061C25.6436 19.645 26.0364 20.9005 26.8218 21.8275C27.6163 22.7545 28.6906 23.218 30.0449 23.218C31.6789 23.218 32.9158 22.4845 33.7554 21.0175L35.7326 22.273C35.1277 23.326 34.3468 24.118 33.3898 24.649C32.4328 25.171 31.2953 25.432 29.9771 25.432Z" fill="black"/>
<path d="M7.10156 25V5.668H12.2205C13.8636 5.668 15.2675 6.0415 16.4321 6.7885C17.5968 7.5355 18.4905 8.611 19.1135 10.015C19.7364 11.419 20.0479 13.1065 20.0479 15.0775V15.5905C20.0479 17.5525 19.7364 19.24 19.1135 20.653C18.4905 22.057 17.5968 23.1325 16.4321 23.8795C15.2675 24.6265 13.8636 25 12.2205 25H7.10156ZM9.59333 22.651H12.1393C13.8997 22.651 15.2269 22.0615 16.1207 20.8825C17.0235 19.7035 17.4749 17.962 17.4749 15.658V15.01C17.4749 12.706 17.0235 10.9645 16.1207 9.7855C15.2269 8.6065 13.8997 8.017 12.1393 8.017H9.59333V22.651Z" fill="black"/>
</svg>
