<svg width="358" height="46" viewBox="0 0 358 46" fill="none" xmlns="http://www.w3.org/2000/svg">
<path d="M348.889 45.628C345.188 45.628 342.301 44.6012 340.227 42.5475C338.173 40.4735 337.146 37.5964 337.146 33.916V4.20901H342.728V33.489C342.728 35.868 343.226 37.6269 344.222 38.7655C345.239 39.8839 346.794 40.443 348.889 40.443C351.085 40.443 353.077 39.5484 354.867 37.759L357.978 41.907C355.497 44.3877 352.467 45.628 348.889 45.628ZM328.454 17.4765V12.7185H356.056V17.4765H328.454Z" fill="black"/>
<path d="M308.896 45.5975C305.826 45.5975 303.132 44.9062 300.814 43.5235C298.496 42.1408 296.696 40.2092 295.415 37.7285C294.134 35.2478 293.494 32.3605 293.494 29.0665V28.2735C293.494 24.9795 294.114 22.1023 295.354 19.642C296.615 17.1613 298.374 15.2297 300.631 13.847C302.888 12.4643 305.501 11.773 308.469 11.773C311.418 11.773 313.898 12.4338 315.911 13.7555C317.924 15.0772 319.561 16.9783 320.822 19.459L316.216 22.082C315.403 20.3943 314.356 19.1133 313.075 18.239C311.814 17.3443 310.279 16.897 308.469 16.897C305.582 16.897 303.295 17.8933 301.607 19.886C299.94 21.8787 299.106 24.6033 299.106 28.06V29.341C299.106 32.7163 299.99 35.4105 301.759 37.4235C303.528 39.4365 305.887 40.443 308.835 40.443C310.645 40.443 312.231 40.0262 313.593 39.1925C314.956 38.3385 316.145 37.0168 317.162 35.2275L321.615 38.064C320.68 39.6907 319.571 41.0733 318.29 42.212C317.009 43.3303 315.576 44.1742 313.99 44.7435C312.424 45.3128 310.726 45.5975 308.896 45.5975Z" fill="black"/>
<path d="M270.978 45.628C267.908 45.628 265.224 44.9469 262.926 43.5845C260.649 42.2019 258.88 40.2804 257.619 37.82C256.359 35.3394 255.728 32.4419 255.728 29.1275V27.9685C255.728 24.7152 256.348 21.8787 257.589 19.459C258.849 17.019 260.608 15.128 262.865 13.786C265.122 12.4237 267.755 11.7425 270.765 11.7425C273.469 11.7425 275.818 12.3322 277.81 13.5115C279.823 14.6705 281.379 16.3175 282.477 18.4525C283.595 20.5672 284.154 23.0479 284.154 25.8945C284.154 26.6672 284.124 27.4195 284.063 28.1515C284.022 28.8632 283.951 29.5647 283.849 30.256H259.175V25.8335H278.664V25.7115C278.664 22.9259 277.942 20.7197 276.499 19.093C275.075 17.446 273.144 16.6225 270.704 16.6225C267.816 16.6225 265.509 17.6494 263.78 19.703C262.072 21.7364 261.218 24.5424 261.218 28.121V28.975C261.218 32.5537 262.103 35.3902 263.872 37.4845C265.661 39.5789 268.081 40.626 271.131 40.626C274.811 40.626 277.597 38.9689 279.488 35.6545L283.941 38.491C282.578 40.87 280.82 42.6594 278.664 43.859C276.509 45.0384 273.947 45.628 270.978 45.628Z" fill="black"/>
<path d="M220.83 44.652V12.7185H225.984V17.5985H226.198C227.418 15.7075 228.912 14.2639 230.681 13.2675C232.45 12.2509 234.473 11.7425 236.751 11.7425C240.045 11.7425 242.586 12.8202 244.376 14.9755C246.165 17.1309 247.06 20.0284 247.06 23.668V44.652H241.539V24.522C241.539 21.9397 240.97 19.9877 239.831 18.666C238.692 17.324 237.015 16.653 234.799 16.653C232.277 16.653 230.234 17.507 228.668 19.215C227.123 20.923 226.35 23.2919 226.35 26.3215V44.652H220.83Z" fill="black"/>
<path d="M184.253 44.652V12.7185H189.408V17.5985H189.621C190.841 15.7075 192.336 14.2639 194.105 13.2675C195.874 12.2509 197.897 11.7425 200.174 11.7425C203.468 11.7425 206.01 12.8202 207.799 14.9755C209.589 17.1309 210.483 20.0284 210.483 23.668V44.652H204.963V24.522C204.963 21.9397 204.394 19.9877 203.255 18.666C202.116 17.324 200.439 16.653 198.222 16.653C195.701 16.653 193.658 17.507 192.092 19.215C190.547 20.923 189.774 23.2919 189.774 26.3215V44.652H184.253Z" fill="black"/>
<path d="M160.335 45.628C157.386 45.628 154.794 44.9367 152.557 43.554C150.341 42.1714 148.613 40.2397 147.372 37.759C146.132 35.258 145.512 32.3707 145.512 29.097V28.2735C145.512 24.9795 146.132 22.0922 147.372 19.6115C148.613 17.1309 150.341 15.1992 152.557 13.8165C154.794 12.4339 157.386 11.7425 160.335 11.7425C163.283 11.7425 165.865 12.4339 168.082 13.8165C170.318 15.1992 172.057 17.1309 173.297 19.6115C174.538 22.0922 175.158 24.9795 175.158 28.2735V29.097C175.158 32.3707 174.538 35.258 173.297 37.759C172.057 40.2397 170.318 42.1714 168.082 43.554C165.865 44.9367 163.283 45.628 160.335 45.628ZM160.335 40.504C163.181 40.504 165.418 39.4772 167.045 37.4235C168.671 35.3699 169.485 32.5639 169.485 29.0055V28.365C169.485 24.7864 168.671 21.9804 167.045 19.947C165.418 17.8934 163.181 16.8665 160.335 16.8665C157.508 16.8665 155.272 17.8934 153.625 19.947C151.998 21.9804 151.185 24.7864 151.185 28.365V29.0055C151.185 32.5639 151.998 35.3699 153.625 37.4235C155.272 39.4772 157.508 40.504 160.335 40.504Z" fill="black"/>
<path d="M125.375 45.628C121.939 45.628 118.95 44.7232 116.408 42.9135C113.887 41.1038 111.935 38.5418 110.552 35.2275C109.19 31.8928 108.509 27.9482 108.509 23.3935V22.2345C108.509 17.6188 109.18 13.6538 110.522 10.3395C111.864 7.00484 113.775 4.453 116.256 2.684C118.757 0.894666 121.735 0 125.192 0C128.567 0 131.445 0.915001 133.824 2.745C136.223 4.575 137.992 7.23867 139.131 10.736L133.885 12.749C133.01 10.1667 131.872 8.296 130.469 7.137C129.066 5.95767 127.266 5.368 125.07 5.368C121.634 5.368 118.98 6.81167 117.11 9.699C115.239 12.5863 114.304 16.714 114.304 22.082V23.546C114.304 28.8733 115.269 32.9908 117.201 35.8985C119.153 38.8062 121.908 40.26 125.467 40.26C129.879 40.26 132.868 37.8098 134.434 32.9095L139.71 34.8615C138.592 38.3588 136.802 41.0327 134.342 42.883C131.902 44.713 128.913 45.628 125.375 45.628Z" fill="black"/>
<path d="M84.3153 44.652L72.2373 12.7185H78.2153L85.0168 31.476L87.1823 38.674H87.3958L89.5308 31.476L96.2103 12.7185H102.127L90.0493 44.652H84.3153Z" fill="black"/>
<path d="M51.5212 45.628C48.4509 45.628 45.7669 44.9469 43.4692 43.5845C41.1919 42.2019 39.4229 40.2804 38.1622 37.82C36.9016 35.3394 36.2712 32.4419 36.2712 29.1275V27.9685C36.2712 24.7152 36.8914 21.8787 38.1317 19.459C39.3924 17.019 41.1512 15.128 43.4082 13.786C45.6652 12.4237 48.2984 11.7425 51.3077 11.7425C54.0121 11.7425 56.3606 12.3322 58.3532 13.5115C60.3662 14.6705 61.9217 16.3175 63.0197 18.4525C64.1381 20.5672 64.6972 23.0479 64.6972 25.8945C64.6972 26.6672 64.6667 27.4195 64.6057 28.1515C64.5651 28.8632 64.4939 29.5647 64.3922 30.256H39.7177V25.8335H59.2072V25.7115C59.2072 22.9259 58.4854 20.7197 57.0417 19.093C55.6184 17.446 53.6867 16.6225 51.2467 16.6225C48.3594 16.6225 46.0516 17.6494 44.3232 19.703C42.6152 21.7364 41.7612 24.5424 41.7612 28.121V28.975C41.7612 32.5537 42.6457 35.3902 44.4147 37.4845C46.2041 39.5789 48.6237 40.626 51.6737 40.626C55.3541 40.626 58.1397 38.9689 60.0307 35.6545L64.4837 38.491C63.1214 40.87 61.3626 42.6594 59.2072 43.859C57.0519 45.0384 54.4899 45.628 51.5212 45.628Z" fill="black"/>
<path d="M0 44.652V0.976013H11.529C15.2297 0.976013 18.3915 1.81985 21.0145 3.50751C23.6375 5.19518 25.6505 7.62501 27.0535 10.797C28.4565 13.969 29.158 17.7815 29.158 22.2345V23.3935C29.158 27.8262 28.4565 31.6387 27.0535 34.831C25.6505 38.003 23.6375 40.4328 21.0145 42.1205C18.3915 43.8082 15.2297 44.652 11.529 44.652H0ZM5.612 39.345H11.346C15.311 39.345 18.3 38.0132 20.313 35.3495C22.3463 32.6858 23.363 28.7513 23.363 23.546V22.082C23.363 16.8767 22.3463 12.9422 20.313 10.2785C18.3 7.61485 15.311 6.28301 11.346 6.28301H5.612V39.345Z" fill="black"/>
</svg>
