<svg width="23" height="23" viewBox="0 0 23 23" fill="none" xmlns="http://www.w3.org/2000/svg">
<path d="M12.2007 20.0692H10.1938V19.0658H9.1903V18.0623H8.18683V17.0589H7.18337V16.0554H6.17991V15.0519H5.17645V14.0485H4.17298V13.045H3.16952V12.0416H2.16606V10.0346H1.1626V5.01731H2.16606V4.01385H3.16952V3.01039H4.17298V2.00693H9.1903V3.01039H10.1938V4.01385H12.2007V3.01039H13.2041V2.00693H18.2215V3.01039H19.2249V4.01385H20.2284V5.01731H21.2318V10.0346H20.2284V12.0416H19.2249V13.045H18.2215V14.0485H17.218V15.0519H16.2145V16.0554H15.2111V17.0589H14.2076V18.0623H13.2041V19.0658H12.2007V20.0692ZM5.17645 11.0381V12.0416H6.17991V13.045H7.18337V14.0485H8.18683V15.0519H9.1903V16.0554H10.1938V17.0589H12.2007V16.0554H13.2041V15.0519H14.2076V14.0485H15.2111V13.045H16.2145V12.0416H17.218V11.0381H18.2215V9.03116H19.2249V6.02078H18.2215V5.01731H17.218V4.01385H14.2076V5.01731H13.2041V6.02078H12.2007V7.02424H10.1938V6.02078H9.1903V5.01731H8.18683V4.01385H5.17645V5.01731H4.17298V6.02078H3.16952V9.03116H4.17298V11.0381H5.17645Z" fill="#044389"/>
</svg>
