<svg width="25" height="25" viewBox="0 0 25 25" fill="none" xmlns="http://www.w3.org/2000/svg">
<path d="M22.3739 11.0381V10.0346H21.3704V9.03113H20.367V8.02767H19.3635V7.02422H18.3601V6.02076H17.3566V5.0173H16.3532V4.01384H15.3497V3.01038H14.3462V2.00692H13.3428V1.00346H11.3359V2.00692H10.3324V3.01038H9.32894V4.01384H8.32548V5.0173H7.32202V6.02076H6.31856V7.02422H5.3151V8.02767H4.31165V9.03113H3.30819V10.0346H2.30473V11.0381H1.30127V12.0415H4.31165V22.0761H5.3151V23.0796H9.32894V16.0553H15.3497V23.0796H19.3635V22.0761H20.367V12.0415H23.3774V11.0381H22.3739ZM19.3635 11.0381H18.3601V21.0726H17.3566V15.0519H16.3532V14.0484H8.32548V15.0519H7.32202V21.0726H6.31856V11.0381H5.3151V10.0346H6.31856V9.03113H7.32202V8.02767H8.32548V7.02422H9.32894V6.02076H10.3324V5.0173H11.3359V4.01384H13.3428V5.0173H14.3462V6.02076H15.3497V7.02422H16.3532V8.02767H17.3566V9.03113H18.3601V10.0346H19.3635V11.0381Z" fill="#044389"/>
</svg>
