<svg width="25" height="25" viewBox="0 0 25 25" fill="none" xmlns="http://www.w3.org/2000/svg">
<path d="M22.5136 8.18675V6.14006H21.4903V5.11672H20.467V4.09338H18.4203V3.07004H15.3502V2.04669H9.21018V3.07004H6.14015V4.09338H4.09347V5.11672H3.07012V6.14006H2.04678V8.18675H1.02344V14.3268H2.04678V16.3735H3.07012V18.4202H2.04678V19.4435H1.02344V21.4902H6.14015V20.4669H7.1635V19.4435H9.21018V20.4669H15.3502V19.4435H18.4203V18.4202H20.467V17.3968H21.4903V16.3735H22.5136V14.3268H23.537V8.18675H22.5136ZM20.467 14.3268V16.3735H18.4203V17.3968H15.3502V18.4202H9.21018V17.3968H7.1635V18.4202H6.14015V19.4435H4.09347V18.4202H5.11681V16.3735H4.09347V14.3268H3.07012V8.18675H4.09347V6.14006H6.14015V5.11672H9.21018V4.09338H15.3502V5.11672H18.4203V6.14006H20.467V8.18675H21.4903V14.3268H20.467Z" fill="black"/>
</svg>
